<?xml version="1.0" encoding="UTF-8"?>
<!DOCTYPE svg PUBLIC "-//W3C//DTD SVG 1.1//EN" "http://www.w3.org/Graphics/SVG/1.1/DTD/svg11.dtd">
<!-- Creator: CorelDRAW 2019 (64-Bit) -->
<svg xmlns="http://www.w3.org/2000/svg" xml:space="preserve" width="2.26231in" height="0.866594in" version="1.1" style="shape-rendering:geometricPrecision; text-rendering:geometricPrecision; image-rendering:optimizeQuality; fill-rule:evenodd; clip-rule:evenodd"
viewBox="0 0 2338.61 895.82"
 xmlns:xlink="http://www.w3.org/1999/xlink">
 <defs>
  <style type="text/css">
   <![CDATA[
    .fil1 {fill:#373435}
    .fil0 {fill:#373435;fill-rule:nonzero}
   ]]>
  </style>
 </defs>
 <g id="Layer_x0020_1">
  <metadata id="CorelCorpID_0Corel-Layer"/>
  <path class="fil0" d="M84.3 206.27l99.14 0 0 553.84c0,40.23 -12.29,72.96 -36.72,98.03 -24.59,25.07 -59.71,37.68 -105.53,37.68l-41.19 0 0 -83.34 28.1 0c19.64,0 34.01,-5.11 42.79,-15.49 8.94,-10.22 13.41,-26.98 13.41,-49.97l0 -540.75zm49.49 -85.09c-17.56,0 -32.25,-5.91 -44.22,-17.56 -11.98,-11.66 -18.04,-25.87 -18.04,-42.79 0,-17.08 6.06,-31.61 18.04,-43.27 11.97,-11.66 26.66,-17.56 44.22,-17.56 17.4,0 32.25,5.91 44.38,17.56 12.13,11.66 18.2,26.18 18.2,43.27 0,16.92 -6.07,31.13 -18.2,42.79 -12.14,11.65 -26.98,17.56 -44.38,17.56z"/>
  <polygon id="1" class="fil0" points="849.52,3.35 849.52,700.24 750.85,700.24 750.85,3.35 "/>
  <polygon id="2" class="fil0" points="1059.46,3.35 1059.46,700.24 960.8,700.24 960.8,3.35 "/>
  <path id="3" class="fil0" d="M1170.74 700.24l0 -493.97 98.67 0 0 493.97 -98.67 0zm49.49 -579.06c-17.56,0 -32.25,-5.91 -44.22,-17.56 -11.98,-11.66 -18.04,-25.87 -18.04,-42.79 0,-17.08 6.06,-31.61 18.04,-43.27 11.97,-11.66 26.66,-17.56 44.22,-17.56 17.4,0 32.25,5.91 44.38,17.56 12.13,11.66 18.2,26.18 18.2,43.27 0,16.92 -6.07,31.13 -18.2,42.79 -12.14,11.65 -26.98,17.56 -44.38,17.56z"/>
  <path id="4" class="fil0" d="M1591.59 711.42c-49.02,0 -91,-11.02 -126.13,-33.21 -34.97,-22.03 -61.95,-52.52 -80.79,-91.32 -19,-38.96 -28.42,-83.18 -28.42,-132.67 0,-50.29 9.9,-94.83 29.53,-133.79 19.64,-38.96 46.78,-69.61 81.42,-91.96 34.49,-22.19 74.24,-33.37 119.26,-33.37 46.78,0 87.33,10.86 121.82,32.73 34.49,21.87 61.15,52.21 80.15,91 19,38.79 28.58,83.66 28.58,134.42l0 26.67 -363.37 0c1.75,44.54 14.69,80.62 38.48,108.09 23.95,27.46 57.47,41.19 100.9,41.19 32.41,0 59.07,-7.35 79.99,-22.03 20.91,-14.69 34.64,-33.69 41.51,-56.99l95 0c-5.91,31.77 -19,59.87 -39.44,84.13 -20.43,24.27 -45.98,43.27 -76.79,56.84 -30.65,13.57 -64.66,20.28 -101.7,20.28zm-136.98 -306.38l266.14 0c-4.15,-39.27 -18.04,-70.41 -41.67,-93.24 -23.79,-22.99 -54.28,-34.32 -91.64,-34.32 -37.52,0 -68.01,11.33 -91.48,34.32 -23.63,22.83 -37.36,53.97 -41.35,93.24z"/>
  <path id="5" class="fil0" d="M2113.18 711.42c-49.02,0 -91,-11.02 -126.13,-33.21 -34.97,-22.03 -61.95,-52.52 -80.79,-91.32 -19,-38.96 -28.42,-83.18 -28.42,-132.67 0,-50.29 9.9,-94.83 29.53,-133.79 19.64,-38.96 46.78,-69.61 81.42,-91.96 34.49,-22.19 74.24,-33.37 119.26,-33.37 46.78,0 87.33,10.86 121.82,32.73 34.49,21.87 61.15,52.21 80.15,91 19,38.79 28.58,83.66 28.58,134.42l0 26.67 -363.37 0c1.75,44.54 14.69,80.62 38.48,108.09 23.95,27.46 57.47,41.19 100.9,41.19 32.41,0 59.07,-7.35 79.99,-22.03 20.91,-14.69 34.64,-33.69 41.51,-56.99l95 0c-5.91,31.77 -19,59.87 -39.44,84.13 -20.43,24.27 -45.98,43.27 -76.79,56.84 -30.65,13.57 -64.66,20.28 -101.7,20.28zm-136.98 -306.38l266.14 0c-4.15,-39.27 -18.04,-70.41 -41.67,-93.24 -23.79,-22.99 -54.28,-34.32 -91.64,-34.32 -37.52,0 -68.01,11.33 -91.48,34.32 -23.63,22.83 -37.36,53.97 -41.35,93.24z"/>
  <path class="fil1" d="M521.77 625.04l-0.31 0.8c-3.37,1.39 -6.63,2.48 -9.55,3.66 -0.29,0.12 -0.61,0.27 -0.9,0.39 -0.28,0.12 -0.61,0.28 -0.89,0.4 -14.01,6.17 -23.55,5.74 -41.68,4.42 -16.3,-1.18 -16.7,-4.85 -32.22,-13.81 -9.44,-5.45 -8.19,-5.7 -15.13,-15.75 -4.3,-6.23 -4.33,-2.3 -4.57,-12.98 -14.84,-43.03 -12.08,-46.09 -12.37,-96.27l-0.11 -164.57c-0.01,-54.53 4.48,-43.89 31.4,-51.79 22,-6.45 17.86,-18.3 17.74,-38.09 -0.09,-14.56 0.29,-30.48 -23.96,-30.56l-81.12 -2.45c-18.9,-0.66 -35.42,-2.32 -53.35,-2.61 -16.03,-0.26 -53.09,-9.12 -47.78,31.48 1.46,11.13 -1.63,25.19 10.41,31.4l8.5 5.39c3.85,2.97 5.05,2.34 10.15,3.42 6.24,1.32 13.89,5.15 18.12,10.25 17.87,21.5 -29.65,359.67 64.27,414.36 9.45,5.51 2.01,4.95 16.7,12.59 8.25,4.29 2.37,2.98 13.1,8.37 5.04,2.52 2.17,-0.46 4.07,2.98 8.33,2.76 16.21,5.76 24.05,8.2 8.47,2.64 17.98,3.44 26.54,5.32 13.23,2.92 41.78,6.04 58.38,3.1l20.74 -3.33c14.13,-4.32 17.71,1.28 54.34,-15.52 6.16,-2.82 14.22,-6.8 20.24,-9.82 4.98,-4.85 9.97,-9.7 14.95,-14.55 8.44,-6.36 3.17,-5.26 7.81,-11.22 1.5,-1.93 3.49,-3.24 5.06,-5.06 3.13,-3.61 1.88,-3.55 3.92,-6.32 0.85,-1.16 3.24,-2.83 4.69,-4.58 -0.02,0.19 -0.03,0.37 -0.05,0.55 3.49,-3.63 1.6,-3.02 3.64,-7.79 3.3,-7.67 1.17,4.44 6.46,-13.81 3.43,-11.83 3.95,-7.35 5.82,-18.39 2.46,-9.76 4.92,-19.52 7.38,-29.29 1.84,-6.7 3.77,-34.67 4.05,-43.04 1.72,-51.4 -9.13,-256.13 9.82,-285.25 21.31,-0.41 19.33,-6.04 22.84,-8.24 4.36,-2.73 5.64,0 9.73,-5.76 2.4,-3.39 1.4,-0.38 2.17,-5.84 1.79,-12.75 5.48,-43.03 -9.65,-46.2 -10.69,-2.25 -95.38,2.6 -116.37,2.57 -15.54,0.44 -47.13,-2.57 -58.25,3.1 -4.11,2.1 -14.15,9.73 -15.75,14.6 -1.39,4.2 -1.16,24.41 -0.12,29.16 3.49,15.82 12.11,18.11 24.02,21.31 6.34,1.71 14.73,-1.26 23.35,7.18 2.54,2.49 4.67,5.47 5.38,10.1 2.58,16.71 1.33,130.47 1.19,151.84 -0.25,39.29 1.86,83.04 -2.05,121.45 -0.98,9.66 -12.79,36.97 -17.48,42.79 -4.38,5.44 -9.46,8.73 -14.47,11.1 -0.67,0.16 -1.53,0.39 -2.92,0.63z"/>
 </g>
</svg>
